# xmcd CD database file
#
# Track frame offsets:
#	150
#	38050
#	65742
#	95917
#	131602
#	163300
#	184970
#	221600
#	249912
#	282450
#
# Disc length: 4481 seconds
#
# Revision: 0
# Processed by: cddbd v1.5PL3 Copyright (c) Steve Scherf et al.
# Submitted via: CDex 1.51
#
DISCID=9e117f0a
DTITLE=Mike Ianieri - Big Bang
DYEAR=1997
DGENRE=Jazz
TTITLE0=Big Bang!
TTITLE1=Vince's Theme
TTITLE2=In the Clear
TTITLE3=The Difference You Make
TTITLE4=A Little Itty Bitty Latin Ditty
TTITLE5=Water's Edge
TTITLE6=Peas 'N' Chicken
TTITLE7=F Over G
TTITLE8=East Coast Songo
TTITLE9=September Seven Four
EXTD=YEAR: 1997
EXTT0=
EXTT1=
EXTT2=
EXTT3=
EXTT4=
EXTT5=
EXTT6=
EXTT7=
EXTT8=
EXTT9=
PLAYORDER=
